<?xml version="1.0" standalone="no"?>
<!DOCTYPE svg PUBLIC "-//W3C//DTD SVG 20010904//EN"
 "http://www.w3.org/TR/2001/REC-SVG-20010904/DTD/svg10.dtd">
<svg version="1.0" xmlns="http://www.w3.org/2000/svg"
 width="637.000000pt" height="167.000000pt" viewBox="0 0 637.000000 167.000000"
 preserveAspectRatio="xMidYMid meet">
<metadata>
Created by potrace 1.15, written by Peter Selinger 2001-2017
</metadata>
<g transform="translate(0.000000,167.000000) scale(0.100000,-0.100000)"
fill="#96C8A2" stroke="none">
<path d="M0 835 l0 -835 3185 0 3185 0 0 835 0 835 -3185 0 -3185 0 0 -835z
m250 721 l135 -23 6 -264 c4 -145 7 -265 8 -266 0 -2 73 -3 161 -3 l160 0 0
240 0 241 33 -5 c17 -3 77 -11 132 -17 55 -6 101 -12 102 -13 2 -2 6 -284 9
-628 l7 -626 -39 -5 c-111 -17 -225 -29 -229 -26 -2 3 -7 126 -10 274 -3 148
-7 270 -8 270 -1 0 -73 -1 -160 -3 l-158 -4 2 -284 c1 -157 0 -286 -2 -288 -2
-2 -61 -11 -130 -20 -69 -9 -135 -18 -147 -21 -21 -4 -22 -1 -22 93 0 53 -3
391 -7 750 -5 550 -3 652 8 652 8 -1 75 -11 149 -24z m6013 -140 c2 -58 0
-110 -3 -115 -6 -9 -166 -28 -300 -36 -172 -10 -271 -22 -283 -34 -8 -8 -13
-55 -15 -130 -5 -158 -13 -151 181 -151 283 -1 315 -7 371 -67 49 -52 56 -97
56 -343 0 -300 -12 -341 -122 -404 -62 -36 -146 -42 -318 -22 -74 8 -198 22
-275 31 -77 9 -146 18 -152 20 -10 3 -13 37 -13 125 l0 120 48 -4 c267 -23
512 -38 533 -33 35 9 49 45 49 131 0 98 -8 134 -33 148 -12 6 -88 12 -177 14
-323 7 -369 16 -405 76 -19 31 -20 51 -20 298 l0 265 30 60 c45 89 74 101 299
120 98 8 194 17 215 20 20 2 79 7 131 10 52 4 115 10 140 14 25 4 49 4 53 1 4
-4 9 -55 10 -114z m-1073 -95 l0 -109 -82 -6 c-46 -3 -146 -9 -223 -13 l-140
-8 -3 -117 -3 -118 166 0 166 0 -3 -132 -3 -132 -160 0 -160 -1 -3 -107 -3
-106 48 -6 c26 -3 75 -8 108 -11 207 -17 291 -27 297 -33 9 -9 13 -231 4 -239
-3 -3 -94 4 -203 16 -109 13 -232 25 -273 27 -82 5 -253 23 -257 27 -1 2 -3
254 -3 562 -1 451 1 560 12 566 7 5 45 9 83 9 39 0 116 5 173 10 56 5 160 12
230 16 70 4 129 8 131 10 2 2 26 4 53 4 l48 0 0 -109z m-3540 68 c162 -11 298
-23 302 -25 14 -9 10 -204 -4 -205 -16 -2 12 -2 -235 6 l-213 7 0 -101 c0
-120 -18 -110 195 -114 l150 -2 0 -120 0 -120 -145 -6 c-80 -4 -156 -7 -170
-8 l-25 -1 -1 -111 0 -111 130 7 c72 4 172 10 221 15 50 4 93 6 97 4 3 -2 7
-56 7 -119 1 -85 -2 -117 -11 -120 -7 -2 -116 -11 -243 -20 -227 -15 -254 -17
-407 -31 l-78 -6 0 606 0 606 68 -5 c37 -3 200 -15 362 -26z m2627 -576 l3
-553 -135 0 c-122 0 -135 2 -136 18 -1 28 2 257 6 400 2 90 0 132 -7 130 -6
-2 -29 -35 -51 -73 -99 -175 -191 -344 -208 -382 -22 -52 -45 -55 -64 -9 -8
19 -44 96 -80 172 -36 76 -75 159 -87 186 -11 26 -25 48 -30 48 -5 0 -8 -96
-8 -225 1 -123 -1 -229 -4 -234 -3 -5 -60 -9 -126 -10 l-120 -1 -1 418 c0 229
-2 463 -3 520 -1 61 3 106 9 111 5 4 69 9 140 10 l131 2 21 -43 c12 -24 30
-65 41 -93 11 -27 41 -94 66 -148 25 -53 46 -101 46 -105 0 -17 41 -92 50 -92
5 0 22 26 38 58 16 31 39 75 52 97 151 270 180 323 180 332 0 18 26 21 155 19
l120 -1 2 -552z m-1612 521 c194 -7 243 -22 321 -99 72 -71 94 -124 94 -229 0
-53 -6 -84 -24 -121 -24 -52 -105 -140 -137 -150 -25 -8 -24 -24 6 -89 14 -30
25 -58 25 -61 0 -3 9 -25 19 -48 36 -80 91 -221 91 -234 0 -11 -28 -13 -136
-11 l-135 3 -62 157 c-35 86 -68 162 -74 170 -8 10 -37 12 -117 10 l-106 -3 0
-170 c0 -126 -3 -171 -12 -174 -19 -7 -237 -12 -246 -5 -4 3 -6 245 -4 539 l2
534 178 -7 c97 -4 240 -9 317 -12z"/>
<path d="M2439 1126 c-5 -6 -9 -72 -9 -148 l0 -138 128 1 c125 1 167 8 208 39
53 40 68 106 40 175 -24 56 -61 69 -219 75 -81 3 -142 1 -148 -4z"/>
</g>
</svg>
